<?xml version="1.0" standalone="no"?><!DOCTYPE svg PUBLIC "-//W3C//DTD SVG 1.1//EN" "http://www.w3.org/Graphics/SVG/1.1/DTD/svg11.dtd"><svg t="1552048994122" class="icon" style="" viewBox="0 0 1024 1024" version="1.1" xmlns="http://www.w3.org/2000/svg" p-id="2235" data-spm-anchor-id="a313x.7781069.0.i1" xmlns:xlink="http://www.w3.org/1999/xlink" width="200" height="200"><path d="M512 64c-192 0-339.2 153.6-345.6 345.6 0 140.8 192 403.2 288 524.8 25.6 32 76.8 32 102.4 6.4l6.4-6.4c96-128 288-384 288-524.8C851.2 217.6 704 64 512 64z m0 569.6c-121.6 0-224-102.4-224-224s102.4-224 224-224 224 102.4 224 224-102.4 224-224 224zM544 288h-64v192h192v-64H544V288z" p-id="2236" data-spm-anchor-id="a313x.7781069.0.i0" class=""></path></svg>