<?xml version="1.0" standalone="no"?><!DOCTYPE svg PUBLIC "-//W3C//DTD SVG 1.1//EN" "http://www.w3.org/Graphics/SVG/1.1/DTD/svg11.dtd"><svg t="1555601688173" class="icon" style="" viewBox="0 0 1024 1024" version="1.1" xmlns="http://www.w3.org/2000/svg" p-id="1294" xmlns:xlink="http://www.w3.org/1999/xlink" width="200" height="200"><path d="M0 0m512 0l0 0q512 0 512 512l0 0q0 512-512 512l0 0q-512 0-512-512l0 0q0-512 512-512Z" fill="#A0C3FF" p-id="1295"></path><path d="M512 652.8c-119.466667 0-358.4 60.16-358.4 179.2v45.226667a512 512 0 0 0 716.8 0V832c0-119.04-238.933333-179.2-358.4-179.2z" fill="#4374E0" p-id="1296"></path><path d="M512 384m-179.2 0a179.2 179.2 0 1 0 358.4 0 179.2 179.2 0 1 0-358.4 0Z" fill="#4374E0" p-id="1297"></path></svg>