<?xml version="1.0" standalone="no"?><!DOCTYPE svg PUBLIC "-//W3C//DTD SVG 1.1//EN" "http://www.w3.org/Graphics/SVG/1.1/DTD/svg11.dtd"><svg t="1557581168346" class="icon" style="" viewBox="0 0 1024 1024" version="1.1" xmlns="http://www.w3.org/2000/svg" p-id="1219" xmlns:xlink="http://www.w3.org/1999/xlink" width="200" height="200"><path d="M443.2 944.3c-25.7 0-51.5-9.8-71.1-29.4L109.3 652.1c-19-19-29.4-44.2-29.4-71.1 0-26.9 10.5-52.1 29.4-71.1l330.5-330.5c28-28 65.2-44.5 104.8-46.4l250.9-12c28.9-1.4 57.3 9.6 77.7 30 20.5 20.5 31.4 48.8 30 77.7l-12.1 250.9c-1.9 39.6-18.4 76.8-46.4 104.8L615.2 814.1c-9.8 9.8-25.6 9.8-35.4 0-9.8-9.8-9.8-25.6 0-35.4l229.6-229.6c19.2-19.2 30.5-44.7 31.8-71.8l12.1-250.9c0.7-15.1-4.8-29.3-15.4-40-10.7-10.7-24.9-16.2-40-15.4L547 183c-27.1 1.3-52.6 12.6-71.8 31.8L144.6 545.3c-9.5 9.5-14.8 22.2-14.8 35.7 0 13.5 5.3 26.2 14.8 35.7l262.8 262.8c19.7 19.7 51.8 19.7 71.5 0l13.6-13.6c9.8-9.8 25.6-9.8 35.4 0s9.8 25.6 0 35.4l-13.6 13.6c-19.6 19.6-45.4 29.4-71.1 29.4z" p-id="1220"></path><path d="M613.9 527c-31.2 0-60.5-12.1-82.5-34.2-45.5-45.5-45.5-119.5 0-165 22-22 51.4-34.2 82.5-34.2s60.5 12.1 82.5 34.2c45.5 45.5 45.5 119.5 0 165-22 22.1-51.3 34.2-82.5 34.2z m0-183.4c-17.8 0-34.6 6.9-47.2 19.5-26 26-26 68.3 0 94.3 12.6 12.6 29.4 19.5 47.2 19.5s34.6-6.9 47.2-19.5c26-26 26-68.3 0-94.3-12.7-12.5-29.4-19.5-47.2-19.5z" p-id="1221"></path></svg>