<?xml version="1.0" standalone="no"?><!DOCTYPE svg PUBLIC "-//W3C//DTD SVG 1.1//EN" "http://www.w3.org/Graphics/SVG/1.1/DTD/svg11.dtd"><svg t="1551844042006" class="icon" style="" viewBox="0 0 1024 1024" version="1.1" xmlns="http://www.w3.org/2000/svg" p-id="726" xmlns:xlink="http://www.w3.org/1999/xlink" width="200" height="200"><path d="M197.667 361c2.11 0 7.389-2.111 15.833-6.333 78.112-35.89 155.166-85.5 231.167-148.834 2.11-2.11 5.277-4.222 9.5-6.333 42.222-40.111 77.055-53.833 104.5-41.167 6.333 4.223 25.333 19 57 44.334 54.889 46.444 138.277 100.277 250.166 161.5 29.556 16.889 38 38 25.334 63.333-12.667 33.778-47.5 34.833-104.5 3.167-73.89-35.89-150.944-89.722-231.167-161.5-12.667-8.445-28.5-6.334-47.5 6.333l-3.167 3.167c-82.333 71.778-167.833 125.61-256.5 161.5-35.889 14.778-61.222 11.61-76-9.5C157.555 403.222 166 380 197.667 361z m47.5 174.167h525.666c59.112 0 86.556 22.166 82.334 66.5-63.334 183.667-240.666 281.833-532 294.5-38-2.111-57-19-57-50.667 4.222-23.222 26.388-36.944 66.5-41.167 192.112-8.444 324.055-60.166 395.833-155.166 10.556-16.89 9.5-26.39-3.167-28.5H245.167c-27.445 0-42.223-13.722-44.334-41.167 2.111-27.445 16.89-42.222 44.334-44.333zM546 500.333c-14.778-12.666-40.11-45.388-76-98.166-19-23.223-15.833-43.278 9.5-60.167 25.333-14.778 49.611-11.611 72.833 9.5 33.778 33.778 60.167 69.666 79.167 107.667 6.333 27.444-2.111 47.5-25.333 60.166-25.334 10.556-45.39 4.223-60.167-19z" p-id="727"></path></svg>