<?xml version="1.0" standalone="no"?><!DOCTYPE svg PUBLIC "-//W3C//DTD SVG 1.1//EN" "http://www.w3.org/Graphics/SVG/1.1/DTD/svg11.dtd"><svg t="1552049157098" class="icon" style="" viewBox="0 0 1024 1024" version="1.1" xmlns="http://www.w3.org/2000/svg" p-id="4996" xmlns:xlink="http://www.w3.org/1999/xlink" width="200" height="200"><path d="M1016.992 652l-256-320A32.02 32.02 0 0 0 736 320H288a32.02 32.02 0 0 0-24.992 12l-256 320C2.464 657.664 0 664.736 0 672v288c0 35.36 28.64 64 64 64h896c35.36 0 64-28.64 64-64V672a32.045 32.045 0 0 0-7.008-20zM960 704H736L608 832H416L288 704H64v-20.768L303.392 384H720.64l239.392 299.232V704z" p-id="4997"></path><path d="M736 512H288c-17.664 0-32-14.336-32-32s14.336-32 32-32h448c17.664 0 32 14.336 32 32s-14.336 32-32 32zM800 640H224c-17.664 0-32-14.336-32-32s14.336-32 32-32h576c17.664 0 32 14.336 32 32s-14.336 32-32 32z" p-id="4998"></path></svg>